Coordinates
version=1
nRows=32
nColumns=22
inDegrees=yes

Units are S.I. units (second, meters, Newtons, ...)
If the header above contains a line with 'inDegrees', this indicates whether rotational values are in degrees (yes) or radians (no).

endheader
time	pelvis_tilt	pelvis_list	pelvis_rotation	pelvis_tx	pelvis_ty	pelvis_tz	hip_flexion_r	hip_adduction_r	hip_rotation_r	knee_angle_r	ankle_angle_r	subtalar_angle_r	hip_flexion_l	hip_adduction_l	hip_rotation_l	knee_angle_l	ankle_angle_l	subtalar_angle_l	lumbar_extension	lumbar_bending	lumbar_rotation
      5.02000000	     -3.40432333	      3.29551844	   -142.45081578	      0.58564877	      0.92394494	      0.86376893	      5.63724509	     15.97181779	      5.84206101	    -17.87404323	      8.89495729	    -10.05955206	     24.50617784	    -13.01302092	      3.36176986	    -59.74848309	      3.36192319	     -0.57633221	     -6.71477317	      3.10571948	     -4.18607512
      5.03000000	     -3.31614754	      3.24458843	   -143.68851749	      0.58016107	      0.92482355	      0.86787568	      4.81123537	     15.84112532	      7.07081388	    -17.55657250	      8.96987459	     -9.96349178	     24.92665850	    -12.94813926	      3.75961674	    -57.68133138	      4.15557543	     -0.92507836	     -6.73311496	      2.97802406	     -3.23588712
      5.04000000	     -3.21683890	      3.18513767	   -144.89063711	      0.57479942	      0.92560472	      0.87201377	      4.03665511	     15.66541243	      8.24214099	    -17.29228247	      9.08439967	     -9.88606833	     25.29758199	    -12.83913400	      4.13119693	    -55.48526494	      4.83982630	     -1.18045374	     -6.74909291	      2.85080190	     -2.33924633
      5.05000000	     -3.09765089	      3.12561621	   -146.05109343	      0.56954172	      0.92625857	      0.87618995	      3.31785173	     15.45019398	      9.36570619	    -17.06383040	      9.24470437	     -9.82414439	     25.64390004	    -12.69126698	      4.46975486	    -53.17860564	      5.36939567	     -1.29962286	     -6.74408916	      2.72409451	     -1.50820123
      5.06000000	     -2.97705605	      3.05798027	   -147.15675973	      0.56438780	      0.92680430	      0.88042663	      2.64043195	     15.20215020	     10.41407910	    -16.87941614	      9.43768941	     -9.77273062	     25.94772496	    -12.49738327	      4.79735749	    -50.76999820	      5.78448056	     -1.28567330	     -6.74249035	      2.60281432	     -0.76099705
      5.07000000	     -2.81348796	      3.01868824	   -148.21491149	      0.55933884	      0.92712541	      0.88469783	      2.08260018	     14.93689010	     11.37412779	    -16.77153786	      9.69113210	     -9.72389346	     26.28478546	    -12.27487730	      5.10472663	    -48.29024150	      6.08384567	     -1.13003017	     -6.67994690	      2.49583264	     -0.07693381
      5.08000000	     -2.68066158	      2.95594750	   -149.20052784	      0.55434979	      0.92740303	      0.88906928	      1.49906984	     14.64656027	     12.26024347	    -16.65640878	      9.95698633	     -9.67293624	     26.54436582	    -12.01249773	      5.40787589	    -45.72230475	      6.21668306	     -0.80694914	     -6.65818930	      2.39924890	      0.49641477
      5.09000000	     -2.60652367	      2.89013122	   -150.07321602	      0.54944275	      0.92764066	      0.89357873	      0.86843195	     14.36234774	     13.03049118	    -16.50792209	     10.19561916	     -9.61645840	     26.73135358	    -11.72867546	      5.76119703	    -43.08729375	      6.19228972	     -0.11277593	     -6.69543686	      2.34778143	      0.91808097
      5.10000000	     -2.49482223	      2.86095957	   -150.88890239	      0.54459231	      0.92764458	      0.89813318	      0.34903011	     14.08250948	     13.68442433	    -16.42776181	     10.49429462	     -9.55152331	     26.95690353	    -11.44797742	      6.06978094	    -40.42002860	      6.06247285	      0.62741913	     -6.67118467	      2.31851634	      1.27977365
      5.11000000	     -2.39506881	      2.83321079	   -151.64124830	      0.53977368	      0.92752342	      0.90273137	     -0.13673766	     13.80568558	     14.23492713	    -16.40100691	     10.85586590	     -9.48512297	     27.14756905	    -11.17682816	      6.30114793	    -37.72138037	      5.81967606	      1.28238153	     -6.66000986	      2.29885983	      1.56811821
      5.12000000	     -2.38229197	      2.83123899	   -152.26225603	      0.53493604	      0.92737504	      0.90752931	     -0.73182655	     13.57622241	     14.67372713	    -16.26583328	     11.12139929	     -9.42058371	     27.26058066	    -10.94098855	      6.55309345	    -35.01851761	      5.54881290	      2.26779986	     -6.70758346	      2.36775213	      1.68880109
      5.13000000	     -2.39040547	      2.82996760	   -152.82952926	      0.53008093	      0.92711038	      0.91237178	     -1.31560062	     13.35468961	     15.02123971	    -16.17383514	     11.44623927	     -9.36349457	     27.32943317	    -10.73132491	      6.67618697	    -32.33291543	      5.24134977	      3.06040355	     -6.77459975	      2.44268352	      1.76232821
      5.14000000	     -2.44937145	      2.83482411	   -153.32900215	      0.52517974	      0.92676898	      0.91731951	     -1.95071355	     13.15235210	     15.28146926	    -16.06180782	     11.78346810	     -9.31288311	     27.33215959	    -10.55332345	      6.70192542	    -29.69294221	      4.95878302	      3.75920081	     -6.88071878	      2.54901559	      1.78684963
      5.15000000	     -2.55953972	      2.84660044	   -153.76657948	      0.52023272	      0.92634786	      0.92233645	     -2.63519217	     12.97637966	     15.49665908	    -15.93780658	     12.12236958	     -9.26852969	     27.26914051	    -10.40631082	      6.63624735	    -27.12443433	      4.72284480	      4.38079732	     -7.02987756	      2.68050238	      1.74210870
      5.16000000	     -2.69055194	      2.86376536	   -154.15920662	      0.51525061	      0.92580180	      0.92742768	     -3.33413181	     12.80849006	     15.68572179	    -15.82055390	     12.49806392	     -9.22788526	     27.17241561	    -10.27081865	      6.49422252	    -24.66681704	      4.52505339	      4.82598641	     -7.19016726	      2.82647957	      1.63522822
      5.17000000	     -2.88750166	      2.91321518	   -154.50824847	      0.51018927	      0.92518737	      0.93258344	     -4.11615338	     12.68999854	     15.86752098	    -15.64015633	     12.81694146	     -9.19240069	     27.00660407	    -10.18354734	      6.37384899	    -22.34162125	      4.44504899	      5.25153685	     -7.39264860	      3.02667229	      1.55700979
      5.18000000	     -3.08314771	      2.98115770	   -154.83041823	      0.50507942	      0.92441577	      0.93776313	     -4.88312925	     12.58678681	     16.06874533	    -15.47611763	     13.17374234	     -9.15398598	     26.84025937	    -10.10631466	      6.26003373	    -20.19387025	      4.40057094	      5.51336028	     -7.57758030	      3.23378628	      1.44150130
      5.19000000	     -3.28194957	      3.08021963	   -155.13448102	      0.49990336	      0.92349708	      0.94294929	     -5.63771083	     12.51303685	     16.30709216	    -15.32276717	     13.55211244	     -9.10737609	     26.68327082	    -10.05335649	      6.19466540	    -18.26644057	      4.40059110	      5.65900515	     -7.74267073	      3.46161977	      1.31490001
      5.20000000	     -3.48490942	      3.21679065	   -155.43191710	      0.49462299	      0.92245157	      0.94810934	     -6.37867845	     12.47613391	     16.57169505	    -15.18025622	     13.90046461	     -9.04990010	     26.53893297	    -10.03784801	      6.18299143	    -16.59240133	      4.47521348	      5.75712238	     -7.88481789	      3.70913690	      1.21797145
      5.21000000	     -3.66461109	      3.39551737	   -155.73205715	      0.48923936	      0.92125850	      0.95323909	     -7.06882597	     12.46966938	     16.87739228	    -15.06868554	     14.25242612	     -8.97311186	     26.44631420	    -10.05224814	      6.22291589	    -15.21322080	      4.58424861	      5.83492335	     -7.97152206	      3.97228365	      1.13315239
      5.22000000	     -3.81748469	      3.61125994	   -156.04198774	      0.48373169	      0.91994824	      0.95832084	     -7.71172218	     12.48593697	     17.21381413	    -14.98017426	     14.58983833	     -8.87193150	     26.40477396	    -10.09401134	      6.30619977	    -14.14648121	      4.71551546	      5.92993464	     -8.00300948	      4.23861148	      1.07818743
      5.23000000	     -3.93221704	      3.86043287	   -156.36102232	      0.47808636	      0.91853839	      0.96336193	     -8.29548932	     12.51822979	     17.56899061	    -14.92175007	     14.90444736	     -8.74477320	     26.42160182	    -10.15282575	      6.41995156	    -13.39881818	      4.83961388	      6.04440720	     -7.96643192	      4.50019297	      1.04518053
      5.24000000	     -3.96937585	      4.14533027	   -156.68017985	      0.47232523	      0.91698475	      0.96839023	     -8.76904712	     12.55411652	     17.90206983	    -14.91111116	     15.25104363	     -8.65138922	     26.53749290	    -10.20296521	      6.62648746	    -12.96886559	      4.91251923	      6.08614052	     -7.81805494	      4.74507357	      1.01418039
      5.25000000	     -4.03228852	      4.43581221	   -157.05023039	      0.46634578	      0.91553874	      0.97334421	     -9.30819407	     12.59099889	     18.34463497	    -14.85280653	     15.46365225	     -8.44074310	     26.61514922	    -10.29522236	      6.76803486	    -12.84236603	      4.95583498	      6.19767963	     -7.68817608	      4.98350643	      1.06394149
      5.26000000	     -4.02502691	      4.72858050	   -157.41402590	      0.46021688	      0.91404703	      0.97832436	     -9.76751531	     12.60049415	     18.74370562	    -14.82676949	     15.69551978	     -8.23521573	     26.74627357	    -10.34660453	      7.00543579	    -12.96980659	      4.87469786	      6.23231049	     -7.46769461	      5.17474590	      1.09842892
      5.27000000	     -3.98812500	      4.99999924	   -157.76668851	      0.45390802	      0.91261985	      0.98336256	    -10.22218276	     12.57109458	     19.10660215	    -14.78651460	     15.92355481	     -8.09315249	     26.88000210	    -10.35426107	      7.28050305	    -13.32230734	      4.63244054	      6.19568553	     -7.20675809	      5.31599669	      1.09887768
      5.28000000	     -3.84211997	      5.32387145	   -158.15790624	      0.44746163	      0.91112484	      0.98834170	    -10.52123945	     12.55328990	     19.50188258	    -14.80843529	     15.97844255	     -7.78518660	     27.14171116	    -10.37367529	      7.62024140	    -13.89565387	      4.29013720	      6.08631246	     -6.79975293	      5.45027793	      1.17306073
      5.29000000	     -3.66529402	      5.58069625	   -158.51805225	      0.44088004	      0.90978873	      0.99341190	    -10.81958475	     12.46123235	     19.83407123	    -14.82825655	     16.02153023	     -7.59543075	     27.36805585	    -10.29846336	      8.04507455	    -14.56806032	      3.68924128	      5.92603881	     -6.37509313	      5.48959039	      1.16681495
      5.30000000	     -3.41214876	      5.81395729	   -158.85315006	      0.43422507	      0.90851563	      0.99857273	    -11.03466723	     12.32046475	     20.08481109	    -14.87079323	     16.01258493	     -7.40382122	     27.68337320	    -10.15166761	      8.52152469	    -15.39219808	      2.92186614	      5.71854300	     -5.86963820	      5.47200763	      1.12945220
      5.31000000	     -3.10480750	      5.98881752	   -159.17121695	      0.42748574	      0.90743215	      1.00378146	    -11.20534642	     12.11124039	     20.30289350	    -14.92971158	     15.90433774	     -7.25761580	     28.01396632	     -9.92343715	      9.04069689	    -16.26606710	      1.94716707	      5.51150107	     -5.32489482	      5.36203531	      1.06307840
      5.32000000	     -2.75325229	      6.09419918	   -159.46474449	      0.42067035	      0.90657838	      1.00905054	    -11.33850024	     11.82766907	     20.45614193	    -15.01032785	     15.70130179	     -7.12612348	     28.36754898	     -9.61193817	      9.53860286	    -17.19662970	      0.85364571	      5.31236660	     -4.75690733	      5.15483125	      0.97051613
      5.33000000	     -2.34888078	      6.14491535	   -159.71451933	      0.41380142	      0.90591559	      1.01441917	    -11.40630318	     11.48978276	     20.54654462	    -15.13661201	     15.43962473	     -6.93814695	     28.81061568	     -9.22460108	      9.93187096	    -18.24927643	     -0.18985982	      5.11854321	     -4.14731217	      4.87206800	      0.81029785
